<svg xmlns="http://www.w3.org/2000/svg" width="1200" height="630" viewBox="0 0 1200 630" role="img" aria-labelledby="title desc">
  <title id="title">九章甄选 — AI 商业服务的严选平台</title>
  <desc id="desc">暖色编辑精选风格的九章甄选社交分享图。</desc>
  <rect width="1200" height="630" fill="#FAFAF9"/>
  <rect x="72" y="72" width="1056" height="486" rx="28" fill="#FFFFFF" stroke="#E7E5E4" stroke-width="2"/>
  <rect x="120" y="126" width="112" height="112" rx="24" fill="#C2410C"/>
  <text x="176" y="200" text-anchor="middle" fill="#FEF3C7" font-family="serif" font-size="64" font-weight="900">甄</text>
  <text x="268" y="166" fill="#1C1917" font-family="serif" font-size="54" font-weight="900">九章甄选</text>
  <text x="270" y="214" fill="#57534E" font-family="sans-serif" font-size="24" font-weight="500">AI 商业服务的严选平台</text>
  <text x="120" y="342" fill="#1C1917" font-family="sans-serif" font-size="48" font-weight="900">找谁、花多少、怎么验收？</text>
  <text x="120" y="402" fill="#57534E" font-family="sans-serif" font-size="28">发现并对接经过真实商业验证的 AI 创作者与独立工作室</text>
  <g transform="translate(120 474)">
    <rect width="204" height="54" rx="27" fill="#FEF3C7"/>
    <text x="102" y="35" text-anchor="middle" fill="#92400E" font-family="sans-serif" font-size="20" font-weight="700">27 个商业项目</text>
  </g>
  <g transform="translate(348 474)">
    <rect width="198" height="54" rx="27" fill="#F5F5F4"/>
    <text x="99" y="35" text-anchor="middle" fill="#57534E" font-family="sans-serif" font-size="20" font-weight="700">选型耗时 -60%</text>
  </g>
  <g transform="translate(570 474)">
    <rect width="150" height="54" rx="27" fill="#DCFCE7"/>
    <text x="75" y="35" text-anchor="middle" fill="#166534" font-family="sans-serif" font-size="20" font-weight="700">0 起纠纷</text>
  </g>
  <path d="M900 150h120M900 190h80M900 230h140M900 270h92" stroke="#E7E5E4" stroke-width="16" stroke-linecap="round"/>
  <circle cx="1048" cy="410" r="58" fill="#1C1917"/>
  <path d="M1024 410l18 18 34-42" fill="none" stroke="#FEF3C7" stroke-width="12" stroke-linecap="round" stroke-linejoin="round"/>
</svg>
